<?xml version="1.0" encoding="UTF-8" standalone="no"?>
<!-- Created with Inkscape (http://www.inkscape.org/) -->

<svg
   width="210mm"
   height="297mm"
   viewBox="0 0 210 297"
   version="1.1"
   id="looneboat"
   xml:space="preserve"
   inkscape:version="1.4.3 (0d15f75, 2025-12-25)"
   sodipodi:docname="LoonE.svg"
   xmlns:inkscape="http://www.inkscape.org/namespaces/inkscape"
   xmlns:sodipodi="http://sodipodi.sourceforge.net/DTD/sodipodi-0.dtd"
   xmlns="http://www.w3.org/2000/svg"
   xmlns:svg="http://www.w3.org/2000/svg">
   <sodipodi:namedview
     id="namedview1"
     pagecolor="#ffffff"
     bordercolor="#000000"
     borderopacity="0.25"
     inkscape:showpageshadow="2"
     inkscape:pageopacity="0.0"
     inkscape:pagecheckerboard="0"
     inkscape:deskcolor="#d1d1d1"
     inkscape:document-units="mm"
     inkscape:zoom="0.97386896"
     inkscape:cx="277.24469"
     inkscape:cy="522.14417"
     inkscape:window-width="1920"
     inkscape:window-height="991"
     inkscape:window-x="-9"
     inkscape:window-y="-9"
     inkscape:window-maximized="1"
     inkscape:current-layer="g25" />
     <defs
     id="defs1" />
     <g
     inkscape:groupmode="layer"
     id="layer2"
     inkscape:label="Layer 2"
     style="display:inline">
     <g
       inkscape:label="Layer 1"
       inkscape:groupmode="layer"
       id="layer1"
       style="display:inline;opacity:1;mix-blend-mode:normal" /><g
       id="g25"
       style="display:inline"
       transform="translate(-5.7632601,-34.387451)"><g
         id="g12-2"
         transform="matrix(0.89564893,0,0,1.0004408,2.6301023,-12.491263)"
         style="display:inline"
         inkscape:export-filename="Loon.png"
         inkscape:export-xdpi="96"
         inkscape:export-ydpi="96"><path
           style="display:inline;fill:#ffdd55;stroke:#ffdd55;stroke-width:0.271682"
           d="m 37.705969,221.16491 c -1.000139,-0.4535 -1.735863,-1.52059 -3.22484,-4.67728 -2.248929,-4.76785 -3.226213,-7.71739 -3.097472,-9.34849 0.180729,-2.28973 1.264531,-4.22963 3.230518,-5.78233 3.740375,-2.95408 15.33761,-7.13768 27.407393,-9.88697 l 4.754446,-1.08298 19.153629,-0.561 19.153627,-0.56099 18.17193,1.54224 18.17193,1.54225 23.53137,4.05085 23.53135,4.05085 3.80003,1.63543 c 2.09002,0.89949 3.83751,1.74786 3.88331,1.88528 0.10754,0.32261 -0.10718,0.36984 -6.86829,1.51081 -21.20122,3.57781 -52.44569,8.16349 -65.7472,9.64959 -30.497504,3.40728 -83.437641,7.12735 -85.851731,6.03274 z"
           id="path12-1" /><path
           style="fill:#d4aa00;stroke:#d4aa00;stroke-width:0.272126"
           d="m 36.633733,221.50957 c -0.343561,-0.25148 -0.912124,-0.91111 -1.263468,-1.46585 -0.950107,-1.50011 -3.555101,-7.48704 -4.250219,-9.76808 -0.596759,-1.95826 -0.599148,-2.02485 -0.134166,-3.73697 0.260381,-0.95876 0.81591,-2.21445 1.234507,-2.79039 0.708316,-0.97457 0.975498,-1.10623 3.853561,-1.89883 19.560746,-5.38681 44.471867,-8.4551 68.686642,-8.46016 9.84231,-0.003 19.10494,0.76681 39.48411,3.27742 9.0826,1.11893 28.84306,3.85183 31.4105,4.34413 0.78924,0.15131 5.66265,0.94521 10.82981,1.76417 5.16716,0.81894 9.50326,1.59707 9.63577,1.72915 0.34278,0.34167 -0.0189,0.42436 -7.17352,1.64004 -17.10027,2.90559 -49.29078,7.66891 -62.42003,9.23647 -22.34516,2.66788 -65.938708,6.07995 -82.181846,6.43237 -6.365455,0.13811 -7.150591,0.10721 -7.711651,-0.30347 z"
           id="path11-6" /></g><g
         id="g12"
         style="display:inline"><path
           style="display:inline;fill:#ffdd55;stroke:#ffdd55;stroke-width:0.271682"
           d="m 37.705969,221.16491 c -1.000139,-0.4535 -1.735863,-1.52059 -3.22484,-4.67728 -2.248929,-4.76785 -3.226213,-7.71739 -3.097472,-9.34849 0.180729,-2.28973 1.264531,-4.22963 3.230518,-5.78233 3.740375,-2.95408 15.33761,-7.13768 27.407393,-9.88697 l 4.754446,-1.08298 19.153629,-0.561 19.153627,-0.56099 18.17193,1.54224 18.17193,1.54225 23.53137,4.05085 23.53135,4.05085 3.80003,1.63543 c 2.09002,0.89949 3.83751,1.74786 3.88331,1.88528 0.10754,0.32261 -0.10718,0.36984 -6.86829,1.51081 -21.20122,3.57781 -52.44569,8.16349 -65.7472,9.64959 -30.497504,3.40728 -83.437641,7.12735 -85.851731,6.03274 z"
           id="path12" /><path
           style="fill:#ffcc00;stroke:#ffcc00;stroke-width:0.272126"
           d="m 36.633733,221.50957 c -0.343561,-0.25148 -0.912124,-0.91111 -1.263468,-1.46585 -0.950107,-1.50011 -3.555101,-7.48704 -4.250219,-9.76808 -0.596759,-1.95826 -0.599148,-2.02485 -0.134166,-3.73697 0.260381,-0.95876 0.81591,-2.21445 1.234507,-2.79039 0.708316,-0.97457 0.975498,-1.10623 3.853561,-1.89883 19.560746,-5.38681 44.471867,-8.4551 68.686642,-8.46016 9.84231,-0.003 19.10494,0.76681 39.48411,3.27742 9.0826,1.11893 28.84306,3.85183 31.4105,4.34413 0.78924,0.15131 5.66265,0.94521 10.82981,1.76417 5.16716,0.81894 9.50326,1.59707 9.63577,1.72915 0.34278,0.34167 -0.0189,0.42436 -7.17352,1.64004 -17.10027,2.90559 -49.29078,7.66891 -62.42003,9.23647 -22.34516,2.66788 -65.938708,6.07995 -82.181846,6.43237 -6.365455,0.13811 -7.150591,0.10721 -7.711651,-0.30347 z"
           id="path11" /></g><g
         id="g15"
         style="display:inline"
         transform="matrix(1.0808697,0,0,1.0273004,-4.8172371,-5.0893306)"><path
           style="fill:#ffcc00;stroke:#ffcc00;stroke-width:0.264583"
           d="m 53.70827,189.00624 c 0,-0.23772 1.256533,-4.39786 1.256533,-4.39786 l 2.156481,7.92974 -2.360245,0.61129 z"
           id="path15" /><path
           style="fill:#ffdd55;stroke:#ffdd55;stroke-width:0.264583;fill-rule:nonzero"
           d="m 55.056353,184.2051 c 0,-0.23772 8.727807,-1.0188 8.727807,-1.0188 l 2.784747,7.04677 -9.254193,2.27534 z"
           id="path15-1"
           sodipodi:nodetypes="ccccc" /></g></g><g
       id="g18"
       style="display:inline"
       transform="translate(-10.166333,-34.855123)"><path
         style="display:inline;fill:#ffcc00;stroke:#ffcc00;stroke-width:0.264583"
         d="m 67.526195,194.22186 c 0.480272,-3.84217 9.077135,-19.9793 8.885027,-20.65169 -0.192109,-0.67238 -1.680952,-8.26066 -1.680952,-8.26066 l -3.361901,-5.18694 -3.746119,6.62775 -4.898771,12.77523 z"
         id="path16"
         sodipodi:nodetypes="csccccc" /><path
         style="display:inline;fill:#ffd42a;stroke:#ffd42a;stroke-width:0.264583"
         d="m 67.718304,194.22186 16.809508,-1.0566 c 0,0 3.160606,-1.59709 5.728007,-2.51148 9.619587,-1.3316 20.942361,-0.21739 28.323251,0.15815 7.38089,0.37554 11.36071,0.57247 15.94502,1.53687 4.58431,0.96439 11.38244,3.50598 11.38244,3.50598 0,0 20.36352,3.65007 20.26746,3.26585 -0.096,-0.38422 -10.18175,-26.31889 -10.18175,-26.31889 l -4.4185,-7.68434 -77.035578,-0.0961 -0.288163,7.39619 z"
         id="path17"
         sodipodi:nodetypes="ccczzccccccc" /><path
         style="display:inline;fill:#ffd42a;stroke:#ffd42a;stroke-width:0.264583"
         d="m 71.464423,159.83441 72.136807,-1.82503 7.97251,7.01196 -76.84347,-0.0961 z"
         id="path18" /><path
         style="display:inline;fill:#ffcc00;stroke:#ffcc00;stroke-width:0.266262"
         d="m 61.810877,160.29583 c 2.36163,3.51353 5.102143,7.59817 6.050525,11.7723 0.69745,3.7591 -0.816341,16.80027 -0.816341,16.80027 l -12.43719,-3.86047 c 0,0 1.57965,-7.28683 1.927456,-11.80955 0.347806,-4.52272 -0.582994,-14.99556 -0.582994,-14.99556 1.72901,0.73975 4.383051,0.86707 5.858544,2.09301 z"
         id="path27"
         sodipodi:nodetypes="zzcczcz"
         transform="translate(78.188228,6.915912)" /><path
         style="display:inline;opacity:1;mix-blend-mode:normal;fill:#ffdd55;stroke:#ffdd55;stroke-width:0.264583"
         d="m 11.818197,183.79333 c 0,0 -0.392689,-9.42308 -0.39751,-13.68093 -0.0048,-4.25785 0.855182,-11.96153 0.855182,-11.96153 0,0 -3.5359209,1.01864 -4.8114216,3.02005 -1.2755007,2.00141 -1.1422319,6.17772 -1.3933736,10.13466 -0.2511417,3.95694 0.1436674,15.06874 0.1436674,15.06874 1.7577112,-0.97029 3.7674765,-1.80917 5.6034588,-2.58099 z"
         id="path28"
         sodipodi:nodetypes="czczzccc"
         transform="translate(78.188228,6.915912)" /></g><g
       id="g24"
       style="display:inline"
       transform="translate(-10.102303,-35.575406)"><path
         style="fill:#ffe680;stroke:#ffe680;stroke-width:0.264583"
         d="m 88.874978,159.70198 c 0,0 3.913507,4.02263 4.153643,3.73447 0.240135,-0.28817 3.025711,-4.32245 3.025711,-4.32245 0,0 8.417528,-0.48922 8.548838,-0.28816 1.53687,2.35333 3.12176,-6.43564 3.12176,-6.43564 l -4.6106,-6.09945 c 0,0 0.93671,3.87746 -0.27852,5.29947 -2.07156,2.42404 -1.24641,2.26869 -7.805115,3.80238 -5.779163,1.3514 -6.155717,4.30938 -6.155717,4.30938 z"
         id="path21"
         sodipodi:nodetypes="cscsccssc" /><path
         style="fill:#ffdd55;stroke:#ffdd55;stroke-width:0.264583"
         d="m 103.0663,146.19469 c 0,0 2.67616,3.62178 2.44938,5.66721 -0.16796,1.51494 -1.10083,2.3783 -2.68952,3.69809 -1.58869,1.31979 -5.468581,1.89539 -7.059991,3.3619 -1.59141,1.46651 -2.593467,4.46653 -2.593467,4.46653 l 20.267468,-1.39279 16.66542,0.048 c 0,0 -0.57095,-3.98123 -1.29673,-6.19551 -0.72578,-2.21428 -2.92116,-4.42562 -3.16979,-6.96394 -0.11546,-1.1787 1.02022,-3.83151 1.02022,-3.83151 z"
         id="path20"
         sodipodi:nodetypes="cszzccczscc" /></g><g
       id="g23"
       style="display:inline"
       transform="translate(-6.5316947,-34.771668)"><path
         style="display:inline;fill:#cccccc;stroke:#cccccc;stroke-width:0.264583"
         d="m 84.171728,132.89117 c 0.192109,-0.24014 6.768236,-2.46566 10.874034,-3.3619 4.105798,-0.89624 10.299928,-1.74511 13.783798,-1.77701 3.48387,-0.0319 6.33958,0.62435 6.96394,0.76844 0.62435,0.14408 12.67917,3.21782 12.67917,3.21782 l 4.85074,2.54544 -24.83004,-1.81721 c 0,0 -21.083928,2.10537 -21.612227,2.1534 -0.528298,0.048 -2.709415,-1.72898 -2.709415,-1.72898 z"
         id="path23"
         sodipodi:nodetypes="czzscccsc" /><path
         style="display:inline;fill:#333333;stroke:#333333;stroke-width:0.264583"
         d="m 84.177556,132.92513 c 2.11961,1.25894 3.490502,1.43257 3.490502,2.20101 0,0.76843 0.125602,8.13406 -0.498752,8.18209 -0.624353,0.048 -2.928448,-2.3485 -2.929657,-2.63666 -0.007,-1.66662 -0.556953,-4.61152 -0.06209,-7.74644 z"
         id="path22"
         sodipodi:nodetypes="csssc" /><path
         style="display:inline;fill:#b3b3b3;stroke:#b3b3b3;stroke-width:0.264583"
         d="m 126.16737,145.47429 c 1.92111,-0.18515 6.5708,-0.88446 7.68434,-3.36191 0.38108,-0.84785 0.12045,-7.07467 -0.33622,-7.82842 -0.49044,-0.80949 -6.14328,-1.44429 -9.26924,-1.82504 -5.13778,-0.6258 -10.33731,-0.94056 -15.50937,-0.74513 -7.20701,0.27232 -21.471549,2.66622 -21.471549,2.66622 l 0.41435,0.96155 c 0,0 0.05643,3.00994 0.07275,3.82851 0.01631,0.81857 0.131281,2.98989 -0.718997,4.07024 0,0 3.783354,1.86533 5.619179,2.36982 1.835824,0.5045 5.274748,0.72864 5.274748,0.72864 l 4.034279,-0.048 1.34476,-0.0961 c 15.5239,-0.96339 19.02565,-0.35075 22.86094,-0.72038 z"
         id="path19"
         sodipodi:nodetypes="zzzaacczczccczz" /><path
         d="m 133.89841,138.36793 -0.24701,0.0827 -45.913999,0.48007 c 0,0 -0.03384,0.0348 -0.09405,0.0977 0.0017,0.0867 0.0034,0.16278 0.0047,0.22583 0.01631,0.81857 0.131459,2.9902 -0.718819,4.07055 0,0 3.78347,1.86539 5.619295,2.36988 1.835824,0.5045 5.274614,0.72864 5.274614,0.72864 l 4.034379,-0.0481 1.34462,-0.0961 c 15.5239,-0.96339 19.02533,-0.35074 22.86062,-0.72037 h 5.2e-4 c 1.92111,-0.18515 6.57074,-0.88462 7.68428,-3.36207 0.0425,-0.0946 0.0767,-0.25673 0.10387,-0.47025 l 0.0692,-2.65307 c -0.005,-0.23254 -0.0128,-0.46883 -0.0222,-0.70538 z"
         style="display:inline;fill:#ffdd55;stroke:#ffdd55;stroke-width:0.264583"
         id="path30" /></g><path
       d="M 110.3398,77.54926 V 92.6979 a 1.512881,0.94900942 0 0 0 -0.92595,0.87442 1.512881,0.94900942 0 0 0 1.5127,0.94924 1.512881,0.94900942 0 0 0 1.51304,-0.94924 1.512881,0.94900942 0 0 0 -0.79206,-0.83429 V 77.54926 Z"
       style="display:inline;fill:#999999;stroke:#999999;stroke-width:0.168471"
       id="path32-6" /><path
       d="m 113.21364,79.11365 v 15.14864 a 1.512881,0.94900942 0 0 0 -0.92595,0.87442 1.512881,0.94900942 0 0 0 1.5127,0.94924 1.512881,0.94900942 0 0 0 1.51304,-0.94924 1.512881,0.94900942 0 0 0 -0.79206,-0.83429 V 79.11365 Z"
       style="display:inline;opacity:1;fill:#999999;stroke:#999999;stroke-width:0.168471"
       id="path32" />
       </g>
       </svg>
